<?xml version="1.0" encoding="UTF-8"?><svg xmlns="http://www.w3.org/2000/svg" viewBox="0 0 822.11 780.55"><g id="a"/><g id="b"><g id="c"><g><path d="M524.12,404.12c-.08,1.73-.05,3.46-.26,5.17-.46,3.78-.73,7.63-1.65,11.3-.9,3.6-4.81,5.13-7.41,2.73-2.68-2.48-5.77-5.57-6.53-8.89-5.93-25.81-10.17-51.9-10.48-78.48-.15-13.49-.12-26.97-.42-40.46-.07-3.08-.59-6.4-1.85-9.17-10.33-22.76-8.91-45.88-2.28-69.12,4.79-16.77,10.04-33.4,14.93-50.14,1.46-5.02,2.39-10.19,3.56-15.29-3.51,3.68-5.57,7.85-8.27,11.56-7.87,10.79-20.72,10.07-25.89-1.99-4.49-10.49-7.77-21.56-10.87-32.58-2.78-9.86-7.02-18.6-14.5-25.71-7.85-7.47-16.74-13.19-27.29-16.77,9.62,11.18,12,24.28,11.5,38.28,.36-4.18,.72-8.35,1.07-12.53l1.79-.14c.83,1.69,1.93,3.3,2.44,5.08,7.83,27.67,15.83,55.3,23.15,83.11,1.69,6.41,1.91,13.55,1.18,20.17-.9,8.21-3.44,16.25-5.38,24.34-.24,1-1.3,2.65-1.76,2.58-1.14-.17-2.78-.95-3.12-1.88-2-5.58-3.73-11.26-5.43-16.94-.42-1.41-.41-2.95-.6-4.43-.55-.04-1.1-.09-1.65-.13-1.2,4.58-3.27,9.13-3.43,13.74-.55,15.95-.8,31.94-.42,47.9,.19,7.81-1.87,14.47-6.47,20.43-2.52,3.27-5.8,5.96-8.49,9.12-1.89,2.22-3.79,4.61-4.97,7.24-4.56,10.17-8.52,20.61-13.32,30.66-3.86,8.08-8.56,15.77-13.07,23.53-.62,1.06-2.32,1.49-3.53,2.21-.62-1.09-1.35-2.12-1.81-3.27-.43-1.07-.62-2.24-.86-3.38-4.09-19.36-7.51-38.9-12.48-58.03-3.52-13.53-4.97-26.69-1.52-40.29,.86-3.39,1.61-6.8,2.32-10.22,.27-1.31,.28-2.68,.42-4.25-1.25,.08-1.78,0-2.21,.16-6.39,2.42-6.76,2.47-7.45-4.63-1.79-18.37-.47-36.56,4.27-54.45,.43-1.61,1.14-3.15,1.72-4.72-11.05,12.53-20.3,25.91-25.02,42.24-1.11-1.4-1.82-2.78-2.1-4.23-3.03-15.4-6.17-30.78-8.92-46.23-1.65-9.28-3.29-18.52-1.93-28.17,.68-4.83-.87-10.11-1.99-15.05-2.16-9.53-6.03-18.85-6.86-28.46-1.37-15.89,.02-31.88,3.12-47.6,4.5-22.81,13.85-43.53,27.42-62.39,1.03-1.43,1.61-3.19,2.4-4.79-.44-.29-.89-.58-1.33-.88-7.41,6.03-14.84,12.37-19.03,21.09-13.34,27.73-23.88,56.48-30.35,86.66-4.63,21.6-6.62,43.26-5.18,65.41,.78,12.02-.66,24.2-1.3,36.3-.12,2.23-1.22,4.4-2.24,7.88-7.66-9.19-5.54-19.3-7.88-28.16-.71-.07-1.41-.14-2.12-.21-1.15,7.4-3.1,14.79-3.21,22.2-.11,7.57,1.26,15.22,2.59,22.73,1.21,6.8,2.3,13.88,5.09,20.11,12.49,27.87,19.11,56.96,19.4,87.43,.1,10.44-.41,20.93-1.36,31.34-1.51,16.53-2.47,33.24-5.8,49.44-3.19,15.54-9.11,30.53-13.77,45.77-2.43,7.95-4.74,15.95-7.11,23.92,2.03-.91,3.17-2.27,4.1-3.76,5.89-9.46,11.68-18.98,17.64-28.4,.89-1.41,2.47-2.39,3.73-3.56,.88,1.65,2.03,3.23,2.54,4.99,.45,1.55,.28,3.31,.2,4.97-.32,6.46-.83,12.91-1.06,19.37-.36,9.92-.27,19.86-.93,29.75-.4,6.07-1.41,12-5.84,17.07-5.32,6.09-9.82,12.89-14.7,19.37-2.25,2.98-2.15,5.32,.78,8.16,10.4,10.07,16.42,22.45,18.09,36.85,1.95,16.78,5.9,33.1,12.08,48.78,3.36,8.54,6.23,17.64,15.02,22.83,1.76,1.04,3.04,3.07,4.26,4.84,11.53,16.66,15.4,35.63,15.19,55.36-.15,13.4-2.05,26.79-3.24,40.18-.34,3.81-.92,7.61-1.44,11.84,.76-.56,1.12-.69,1.25-.93,.39-.73,.69-1.51,1.02-2.27,13.63-31.99,16.16-65.25,10.86-99.27-5.31-34.04-13.17-67.53-22.49-100.69-1.98-7.04-5.36-14.16-5.26-21.2,.24-16.41,2.16-32.79,3.54-49.17,.1-1.18,1.23-2.28,2.63-4.7,1.08,5.8,1.86,10.02,2.65,14.24,.63-.07,1.27-.14,1.9-.21,.64-4.72,1.91-9.45,1.8-14.15-.3-13.13-1.23-26.25-1.79-39.37-.45-10.46-1.43-20.95-.93-31.37,1.23-25.74,3.14-51.45,4.85-77.17,.16-2.36,.77-4.7,1.17-7.04,.51-.09,1.02-.18,1.54-.26,.95,1.93,2.34,3.77,2.79,5.82,4.23,18.95,8.12,37.98,12.48,56.91,1.87,8.13-.68,15.2-4.38,21.87-1.65,2.97-1.63,4.76-.12,7.53,21.42,39.25,23.41,80.46,11.86,122.86-1.92,7.03-5.24,13.68-7.91,20.5,.43,.32,.87,.64,1.3,.96,4.94-6.31,12.03-11.89,14.43-19.05,10.17-30.36,15.33-61.73,14.68-93.91-.07-3.32,.02-6.69,.6-9.94,.25-1.42,1.93-2.59,2.96-3.88,1.08,1.27,2.74,2.38,3.13,3.83,.87,3.23,1.1,6.63,1.59,9.97,.54,.06,1.07,.12,1.61,.18,2.83-8.83,7.93-17,7.8-26.69-.16-11.14-.91-22.26-1.39-33.4-.18-4.3,1.33-7.61,4.98-10.23,3.22-2.31,6.18-5.08,8.9-7.99,6.91-7.37,13.6-14.93,20.41-22.39,1.21-1.32,2.59-2.47,3.9-3.7,.94,1.63,2.6,3.21,2.71,4.9,1.11,16.08,2.51,32.17,2.6,48.26,.04,6.4-2.37,13.08-4.85,19.16-2.19,5.37-6.21,10.34-12.62,10.83-3.73,.29-4.84,1.61-5.45,4.83-4.46,23.52-9.07,47.01-13.54,70.52-1.39,7.33-3.74,14.76-3.5,22.08,.58,17.43,1.36,34.98,4.05,52.17,4.07,25.95,9.82,51.64,14.93,77.42,.57,2.88,1.6,5.66,2.42,8.49,.92-1.7,.69-3.14,.62-4.58-.56-12.42-1.5-24.85-1.5-37.27,0-9.61,1.41-19.22,1.79-28.84,.79-19.94,.74-39.93,2.17-59.83,.77-10.67,3.57-21.24,6.03-31.73,1.85-7.89,7.78-11.38,15.56-12.68,4.35-.73,8.6-2.32,12.76-3.87,2.99-1.11,5.77-2.79,8.64-4.22,1.35,3.14,2.96,6.2,3.99,9.44,2.76,8.67,6.96,17.32,7.52,26.17,.94,14.88-.04,29.94-1.13,44.85-.57,7.87-2.86,15.66-4.83,23.37-.56,2.19-2.4,4.35-4.21,5.85-1.49,1.23-5.32-.08-4.3,3.76,.56,2.13,1.65,4.29,3.03,6.01,3.67,4.57,8.82,5.73,14.45,6.6,3.71,.57,5.26-.25,6.2-3.43,.47-1.59,1.05-3.18,1.25-4.82,2.63-21.1,5.75-42.17,7.63-63.34,1.87-21.02,2.63-42.15,3.6-63.25,1.22-26.75,2.22-53.5,3.14-80.26,.1-2.93-.92-5.9-1.42-8.85-.56,.06-1.12,.11-1.68,.17Zm-24.11,97.68c-8.57-8.08-8.4-25.48,.42-33.35,3.22,11.59-.68,22.45-.42,33.35Z"/><path d="M252.24,312.16c.69-5.77-1.82-8.14-5.05-10.99-1.16-1.03-2.95-1.31-4.39-2.06-10.81-5.67-16.77-15.59-22.53-25.7-.78-1.38-1.8-2.62-2.71-3.92-.4,.24-.8,.48-1.21,.71,.39,1.16,.72,2.36,1.19,3.49,2.31,5.6,5.59,11,6.78,16.83,1.96,9.63,2.7,19.51,3.74,29.31,1.68,15.79-.23,30.91-8.84,44.71-3.75,6.02-7.85,11.37-15.88,11.36-7.02-.01-8.13,.68-7.48,7.62,1.12,12.01-2.05,22.68-8.2,32.79-2.86,4.7-12.24,6.59-16.22,2.73-9.14-8.86-9.01-20.57-9.07-32-.02-4.49,3.42-10.58,1.51-13.15-3.76-5.06-1.48-9.59-.41-13.33,4.53-15.83,7.64-32.19,15.69-46.89,1.01-1.86,.35-4.63,.47-6.97-.54-.14-1.08-.27-1.61-.41-1.37,1.14-3.15,2.03-4.05,3.47-5.98,9.56-12.02,19.11-17.52,28.94-2.61,4.66-3.96,10.02-6.16,14.93-.62,1.39-2.25,2.33-3.42,3.47-.52-1.56-1.61-3.18-1.45-4.67,1.16-10.9,2.4-21.81,3.96-32.66,1.61-11.28,7.1-20.82,14.01-29.69,.96-1.23,.9-3.25,1.58-5.93-5.06,1.59-8.62,2.83-12.25,3.83-20.52,5.66-33.61-3.24-43.17-14.47-10.63-12.49-14.18-28.37-17.45-43.86-2.2-10.39-2.08-21.29-2.73-31.98-.2-3.21-.94-5.56-4.29-6.35-2.09-.49-4.19-1-6.31-1.23-6.11-.67-9.79-4.72-10.08-10.79-.46-9.58,2.04-18.49,5.64-27.19,2.27-5.5,.42-14.05-3.55-18.37-6.14-6.68-11.87-13.74-18.02-20.41-7.42-8.05-8.2-17.27-6.75-27.64,.72-5.15-1.25-10.67-2.01-16.03l-2.15-.21c-.64,1.62-1.75,3.22-1.83,4.87-.22,4.82-1.07,9.96,.25,14.41,1.78,5.96-1.2,8.96-4.78,12.22-3.62,3.3-4.77,6.83-1.75,11.27,2.02,2.98,4,6.11,5.24,9.46,1.21,3.25,2.76,7.26,1.84,10.21-1.62,5.15,.35,8.18,3.44,11.46,2.24,2.38,4.45,4.84,6.32,7.51,2.88,4.12,1.97,10.31-1.31,14.18-4.55,5.37-10.65,4.96-16.53,4.48-15.99-1.31-22.08-12.21-19.55-26.84,.33-1.93,.96-3.96,.65-5.81-.41-2.48-2.32-3.91-4.69-2.17-1.89,1.38-3.38,3.39-4.88,5.25-7.67,9.52-4.01,26.12,3.85,35.03,3.61,4.09,8.9,6.66,13.35,10.03,2.62,1.99,5.76,3.91,4.59,8.02-2.32,8.14-4.6,16.29-7.22,24.33-4.06,12.44-6.62,24.93-2.57,38.39,3.95-.74,3.69-3.95,4.04-6.53,1.55-11.44,4.51-22.32,11.53-31.79,2.73-3.69,10.73-6.13,15.05-4.58,12.2,4.39,16.38,16.39,17.53,27.94,1.26,12.71,.63,25.57-5.49,37.34-2.92,5.62-5.51,11.68-9.59,16.37-5.77,6.63-12.86,12.1-19.18,18.27-1.21,1.18-1.48,3.32-2.19,5.01,2-.15,4.55,.45,5.91-.55,10.36-7.73,20.47-15.8,30.72-23.68,1.41-1.08,3.17-1.69,4.77-2.52,.39,.31,.77,.61,1.16,.92-6.79,22.24-12.42,44.56-12.79,68.07-.38,23.82,4.6,46.4,11.56,68.86,1.16-1.81,1.56-3.54,1.48-5.26-.95-21.39-2.31-42.69,3.59-63.81,4.65-16.65,11.32-32.34,19.24-47.57,2.2-4.22,9.5-7.44,11.7-5.28,3.23,3.16,7.17,6.74,8.16,10.8,2.31,9.46,3.56,19.27,4.25,29.01,.48,6.85-.46,13.83-1.12,20.72-1.26,13.22-2.76,26.41-4.19,39.61-.48,4.4-.95,8.8-1.61,13.17-1.23,8.24-2.72,16.43-3.84,24.68-.7,5.21-.82,10.5-1.38,15.73-1.26,11.73-3.25,23.42-3.81,35.18-.7,14.62-.33,29.3-.22,43.95,.02,2.43,1.05,4.86,1.61,7.29,.66,.03,1.32,.05,1.98,.08,.43-2,1.14-3.99,1.22-6,.31-7.6,0-15.25,.7-22.8,.85-9.24,2.16-18.47,3.87-27.6,1.53-8.19,3.79-16.24,5.85-24.32,1.69-6.62,3.5-13.21,5.4-19.77,.26-.91,1.34-1.58,2.05-2.36,.77,.71,1.73,1.3,2.25,2.16,.57,.94,.94,2.11,1.04,3.22,.91,10.88,2.32,21.76,2.46,32.66,.17,13.04-.83,26.1-1.1,39.16-.04,1.89,1.17,3.8,1.8,5.7,1.62-1.42,3.93-2.54,4.74-4.33,2.49-5.49,4.32-11.28,6.62-16.86,.47-1.14,1.92-1.88,2.91-2.81,1.01,1.13,2.76,2.18,2.9,3.41,.8,7.2,1.45,14.42,1.72,21.66,.22,6.14,.43,12.38-.38,18.45-1.33,9.98-3.9,19.8-5.2,29.79-1.41,10.86-2.15,21.82-2.76,32.76-.21,3.68,1.24,7.43,1.29,11.16,.13,9.66,2.92,18.68,6.11,27.63,.37,1.03,1.39,1.83,2.77,3.58,.31-1.97,.56-2.72,.53-3.46-.44-9.77-1.83-19.59-1.18-29.28,1.04-15.48,3.04-30.93,5.35-46.29,1.89-12.57,3.31-25.37,12.34-35.75,4.14-4.76,10.03-7.96,13.18-4.57,2.68,2.89,4.25,6.85,6.1,10.45,2.35,4.56,4.5,9.22,6.74,13.84,.69-.21,1.38-.41,2.07-.62-.37-5.66-.97-11.31-1.05-16.97-.12-8.54-.04-17.1,.26-25.63,.19-5.38,2.05-10.32-3.52-15.07-5.93-5.05-9.85-12.22-11.95-20.02-1.87-6.98,1.13-10.71,8.2-10.8,10.51-.12,17.09,6.62,23.56,13.36,4.13,4.3,7.71,9.12,11.56,13.73,3.26-2.17,4.01-4.27,2.62-7.76-4.34-10.9-6.67-22.37-6.95-34.04-.24-10.1,.42-20.25,1.12-30.35,.97-13.85,5.73-26.6,13.48-37.97,6.84-10.03,14.49-19.5,21.96-29.09,3.63-4.66,4.93-9.28,1.75-13.28-7.25-9.12-6.49-19.78-5.27-29.9Zm-103.98,293.45c-.14,1.1-1.09,2.11-1.68,3.15l-1.15-.16c-.2-1.32-.6-2.66-.54-3.96,.08-1.54,.53-3.07,.97-4.56,.02-.07,1.98,.14,2.03,.4,.31,1.68,.58,3.45,.37,5.13Z"/><path d="M813.64,135.61c-.93-.67-2.36-1.58-3.14-1.29-.97,.37-2.01,1.83-2.12,2.91-.18,1.74,.32,3.56,.61,5.34,1.24,7.57,.58,14.42-4.68,20.83-5,6.08-21.3,7.95-27.39,4.75-3.99-2.09-6.88-5.42-6.99-10.57-.14-6.4,4.56-9.95,8.01-14.13,2.85-3.46,5.77-6.48,3.3-11.41-.43-.86-.19-2.31,.21-3.29,2.33-5.66,4.46-11.44,7.32-16.83,2.25-4.24,1.68-7.43-1.58-10.55-1.56-1.5-3.22-2.95-4.49-4.67-.81-1.09-1.43-2.66-1.39-3.99,.19-6.1,.81-12.18,.89-18.28,.02-1.65-1.33-3.32-2.05-4.98-.77,.12-1.54,.25-2.31,.37-.48,5.73-1.63,11.5-1.27,17.18,.45,7.21,1.37,14.6-3.09,20.58-6.57,8.83-13.58,17.45-21.32,25.24-5.54,5.58-5.79,11.84-4.66,18.29,1.11,6.33,3.96,12.34,5.64,18.6,3.32,12.39-.46,18.2-13.03,20.61-5.88,1.13-6.97,2.79-7.11,8.72-.17,6.93-.23,13.94-1.39,20.74-1.84,10.8-3.58,21.8-7.17,32.08-3.87,11.08-9.56,21.7-19.3,29.11-9.16,6.96-19.33,10.72-31.08,7.76-5.22-1.31-10.46-2.58-17.25-4.25,1.16,2.8,1.74,4.6,2.61,6.26,4.46,8.49,10.71,16.49,13.07,25.52,3.08,11.76,3.17,24.32,4.37,36.55,.13,1.36-.9,2.84-1.39,4.26-1.19-1.1-2.78-1.99-3.49-3.35-3.86-7.43-7.5-14.98-11.23-22.48-2.37-4.77-4.4-9.75-7.23-14.22-2.53-4-5.96-7.43-8.99-11.12-.78,.34-1.56,.69-2.34,1.03,.39,2.52,.42,5.16,1.25,7.52,1.26,3.56,3.41,6.81,4.6,10.39,3.36,10.06,7.13,20.06,9.33,30.39,1.23,5.77,6.09,12.06,.52,18.25-.17,.19-.13,.67-.04,.97,2.12,7.26,1.94,14.59,1.6,22.11-.31,6.68-2.08,12.61-5.1,18.3-3.31,6.24-9.34,8.33-15.5,4.66-6.49-3.86-9.33-10.87-10.93-17.73-1.48-6.33-1.29-13.1-1.43-19.69-.09-4.64-1.82-6.19-6.57-6.48-4.03-.25-9.41-1.28-11.59-4.03-4.71-5.95-10.45-11.64-11.33-20.09-.51-4.97-3.11-9.78-3.24-14.71-.23-8.62,1.11-17.27,1.07-25.9-.05-11.45,2.65-22,7.98-32.06,1.43-2.69,1.99-5.84,2.95-8.78-.42-.19-.84-.38-1.26-.57-.8,1.13-1.73,2.19-2.38,3.39-6.52,12.07-14.03,23.01-27.45,28.69-2.51,1.06-5.07,5-5.3,7.79-.49,5.99,1.17,12.14,.73,18.14-.31,4.23-1.92,8.75-4.18,12.36-3.92,6.26-4.2,10.38,.87,15.71,10.93,11.49,20.39,24.08,26.65,38.67,3.53,8.21,6.84,16.85,8.17,25.61,3.42,22.6,2.6,45.14-5.55,66.87-1.38,3.68-.8,5.88,2.59,7.61,5.34-6.07,10.32-12.29,15.91-17.9,4.91-4.93,10.62-8.76,18.13-8.94,8.73-.21,11.29,3.11,8.92,11.6-2.43,8.7-7.89,15.38-13.73,21.91-1.12,1.25-2.48,2.99-2.41,4.45,.16,3.25,1.6,6.44,1.7,9.68,.23,7.6,.15,15.22-.13,22.81-.22,5.99-.93,11.96-1.43,17.95,.67,.21,1.34,.43,2.01,.64,2.28-4.41,4.57-8.81,6.85-13.22,1.86-3.59,3.23-7.58,5.77-10.59,1.17-1.39,5.24-1.99,6.92-1.04,7.25,4.11,12.74,10.74,14.43,18.54,3.73,17.23,6.2,34.75,8.78,52.22,2.27,15.34,2.1,30.76-.08,46.14-.09,.63,.44,1.34,.9,2.66,1.01-1.26,1.8-1.88,2.11-2.68,3.43-8.7,6.09-17.6,6.32-27.04,.15-6.11,.09-12.23,.08-18.34-.01-6.45,.61-13-.27-19.34-1.76-12.73-5.39-25.27-6.29-38.03-.9-12.62,.52-25.42,1.19-38.12,.08-1.54,1.87-3,2.86-4.49,1.21,1.35,2.87,2.51,3.56,4.09,2.41,5.52,4.34,11.26,6.81,16.76,.61,1.37,2.57,2.13,3.9,3.17,.66-1.55,1.92-3.11,1.86-4.63-.23-6.24-1.33-12.47-1.25-18.7,.18-15.13,.73-30.27,1.38-45.39,.17-3.88,1.1-7.75,1.99-11.56,.24-1.02,1.6-1.78,2.45-2.65,.76,.92,1.89,1.72,2.21,2.77,1.72,5.77,3.29,11.59,4.81,17.41,2.52,9.64,5.84,19.18,7.25,28.99,2.26,15.74,5.26,31.51,3.71,47.61-.19,1.97,.77,4.04,1.2,6.07,.67,0,1.34-.01,2.02-.02,.55-2.58,1.62-5.17,1.57-7.74-.3-17.24-.74-34.49-1.32-51.72-.25-7.4-.86-14.78-1.43-22.17-.41-5.41-.79-10.84-1.59-16.2-1.55-10.33-3.65-20.59-5.03-30.94-1.28-9.59-1.9-19.26-2.86-28.89-.44-4.4-.98-8.8-1.49-13.2-.88-7.65-2.55-15.3-2.45-22.93,.13-9.97,1.69-19.93,2.59-29.9,.62-6.84,4.28-11.96,9.37-16.11,1.05-.85,3.54-1.25,4.54-.59,2.93,1.92,6.31,3.98,7.99,6.87,8.13,14.05,14.35,28.98,18.39,44.72,1.85,7.21,4.4,14.48,4.67,21.8,.52,14.43-.35,28.91-.57,43.38-.03,1.79,.44,3.59,.68,5.38,.57,.01,1.13,.02,1.7,.04,6.09-22.5,10.95-45.05,10.67-68.8-.28-23.64-6.29-46.02-12.12-68.85,2.3,.55,4.02,1.38,5.46,2.55,8.06,6.53,15.72,13.61,24.22,19.48,3.31,2.29,6.77,6.75,13.5,4.26-1.96-2.49-3.33-4.74-5.19-6.49-4.32-4.08-9.1-7.7-13.25-11.93-3.6-3.66-7.8-7.43-9.59-12-3.23-8.21-7.93-15.73-9-25.08-1.68-14.71-2.11-28.84,6.5-41.58,3.38-5.01,8.44-8.9,14.97-8.32,6.64,.59,11.91,4.64,14.3,10.59,3.63,9.07,7.47,18.22,7.91,28.29,.07,1.71,1.61,3.36,2.47,5.04l2.18-.73c0-2.11-.59-4.44,.1-6.29,2.94-7.8,.51-15.28-1.28-22.63-2.27-9.31-5.49-18.38-8.18-27.59-2.7-9.24-2.64-9.27,5.29-14.99,2.27-1.63,4.67-3.07,6.94-4.71,7.58-5.5,10.81-13.54,12.03-22.32,1.16-8.35-.8-15.97-8.16-21.25Zm-138.11,464.25c.57,.63,1.56,1.21,1.63,1.89,.21,2.25,.08,4.53,.08,6.79-.83,0-1.65,0-2.48,.01-.38-2.27-.9-4.54-1.03-6.82-.03-.59,1.17-1.24,1.81-1.87Z"/></g></g></g></svg>