<svg width="124" height="34" viewBox="0 0 124 34" fill="none" xmlns="http://www.w3.org/2000/svg">
<g clip-path="url(#clip0_2717_385)">
<path d="M46.2113 7.63086H39.3723C38.9043 7.63086 38.5063 7.97086 38.4333 8.43286L35.6673 25.9699C35.6123 26.3159 35.8803 26.6279 36.2313 26.6279H39.4963C39.9643 26.6279 40.3623 26.2879 40.4353 25.8249L41.1813 21.0949C41.2533 20.6319 41.6523 20.2919 42.1193 20.2919H44.2843C48.7893 20.2919 51.3893 18.1119 52.0683 13.7919C52.3743 11.9019 52.0813 10.4169 51.1963 9.37686C50.2243 8.23486 48.5003 7.63086 46.2113 7.63086ZM47.0003 14.0359C46.6263 16.4899 44.7513 16.4899 42.9383 16.4899H41.9063L42.6303 11.9069C42.6733 11.6299 42.9133 11.4259 43.1933 11.4259H43.6663C44.9013 11.4259 46.0663 11.4259 46.6683 12.1299C47.0273 12.5499 47.1373 13.1739 47.0003 14.0359Z" fill="#253B80"/>
<path d="M66.654 13.9564H63.379C63.1 13.9564 62.859 14.1604 62.816 14.4374L62.671 15.3534L62.442 15.0214C61.733 13.9924 60.152 13.6484 58.574 13.6484C54.955 13.6484 51.864 16.3894 51.262 20.2344C50.949 22.1524 51.394 23.9864 52.482 25.2654C53.48 26.4414 54.908 26.9314 56.607 26.9314C59.523 26.9314 61.14 25.0564 61.14 25.0564L60.994 25.9664C60.939 26.3144 61.207 26.6264 61.556 26.6264H64.506C64.975 26.6264 65.371 26.2864 65.445 25.8234L67.215 14.6144C67.271 14.2694 67.004 13.9564 66.654 13.9564ZM62.089 20.3304C61.773 22.2014 60.288 23.4574 58.394 23.4574C57.443 23.4574 56.683 23.1524 56.195 22.5744C55.711 22.0004 55.527 21.1834 55.681 20.2734C55.976 18.4184 57.486 17.1214 59.351 17.1214C60.281 17.1214 61.037 17.4304 61.535 18.0134C62.034 18.6024 62.232 19.4244 62.089 20.3304Z" fill="#253B80"/>
<path d="M84.0955 13.957H80.8045C80.4905 13.957 80.1955 14.113 80.0175 14.374L75.4785 21.06L73.5545 14.635C73.4335 14.233 73.0625 13.957 72.6425 13.957H69.4085C69.0155 13.957 68.7425 14.341 68.8675 14.711L72.4925 25.349L69.0845 30.16C68.8165 30.539 69.0865 31.06 69.5495 31.06H72.8365C73.1485 31.06 73.4405 30.908 73.6175 30.652L84.5635 14.852C84.8255 14.474 84.5565 13.957 84.0955 13.957Z" fill="#253B80"/>
<path d="M94.9916 7.63086H88.1516C87.6846 7.63086 87.2866 7.97086 87.2136 8.43286L84.4476 25.9699C84.3926 26.3159 84.6606 26.6279 85.0096 26.6279H88.5196C88.8456 26.6279 89.1246 26.3899 89.1756 26.0659L89.9606 21.0949C90.0326 20.6319 90.4316 20.2919 90.8986 20.2919H93.0626C97.5686 20.2919 100.168 18.1119 100.848 13.7919C101.155 11.9019 100.86 10.4169 99.9746 9.37686C99.0036 8.23486 97.2806 7.63086 94.9916 7.63086ZM95.7806 14.0359C95.4076 16.4899 93.5326 16.4899 91.7186 16.4899H90.6876L91.4126 11.9069C91.4556 11.6299 91.6936 11.4259 91.9746 11.4259H92.4476C93.6816 11.4259 94.8476 11.4259 95.4496 12.1299C95.8086 12.5499 95.9176 13.1739 95.7806 14.0359Z" fill="#179BD7"/>
<path d="M115.434 13.9564H112.161C111.88 13.9564 111.641 14.1604 111.599 14.4374L111.454 15.3534L111.224 15.0214C110.515 13.9924 108.935 13.6484 107.357 13.6484C103.738 13.6484 100.648 16.3894 100.046 20.2344C99.7339 22.1524 100.177 23.9864 101.265 25.2654C102.265 26.4414 103.691 26.9314 105.39 26.9314C108.306 26.9314 109.923 25.0564 109.923 25.0564L109.777 25.9664C109.722 26.3144 109.99 26.6264 110.341 26.6264H113.29C113.757 26.6264 114.155 26.2864 114.228 25.8234L115.999 14.6144C116.053 14.2694 115.785 13.9564 115.434 13.9564ZM110.869 20.3304C110.555 22.2014 109.068 23.4574 107.174 23.4574C106.225 23.4574 105.463 23.1524 104.975 22.5744C104.491 22.0004 104.309 21.1834 104.461 20.2734C104.758 18.4184 106.266 17.1214 108.131 17.1214C109.061 17.1214 109.817 17.4304 110.315 18.0134C110.816 18.6024 111.014 19.4244 110.869 20.3304Z" fill="#179BD7"/>
<path d="M119.295 8.11188L116.488 25.9699C116.433 26.3159 116.701 26.6279 117.05 26.6279H119.872C120.341 26.6279 120.739 26.2879 120.811 25.8249L123.579 8.28888C123.634 7.94288 123.366 7.62988 123.017 7.62988H119.857C119.578 7.63088 119.338 7.83488 119.295 8.11188Z" fill="#179BD7"/>
<path d="M7.26555 30.0362L7.78855 26.7143L6.62355 26.6873H1.06055L4.92655 2.17425C4.93855 2.10025 4.97755 2.03125 5.03455 1.98225C5.09155 1.93325 5.16455 1.90625 5.24055 1.90625H14.6205C17.7345 1.90625 19.8835 2.55425 21.0055 3.83325C21.5315 4.43325 21.8665 5.06025 22.0285 5.75025C22.1985 6.47425 22.2015 7.33925 22.0355 8.39425L22.0235 8.47125V9.14725L22.5495 9.44525C22.9925 9.68025 23.3445 9.94925 23.6145 10.2572C24.0645 10.7703 24.3555 11.4222 24.4785 12.1952C24.6055 12.9902 24.5635 13.9362 24.3555 15.0072C24.1155 16.2393 23.7275 17.3123 23.2035 18.1903C22.7215 18.9993 22.1075 19.6702 21.3785 20.1903C20.6825 20.6842 19.8555 21.0592 18.9205 21.2992C18.0145 21.5352 16.9815 21.6542 15.8485 21.6542H15.1185C14.5965 21.6542 14.0895 21.8423 13.6915 22.1793C13.2925 22.5233 13.0285 22.9932 12.9475 23.5072L12.8925 23.8062L11.9685 29.6612L11.9265 29.8762C11.9155 29.9443 11.8965 29.9782 11.8685 30.0012C11.8435 30.0222 11.8075 30.0362 11.7725 30.0362H7.26555Z" fill="#253B80"/>
<path d="M23.0481 8.54883C23.0201 8.72783 22.9881 8.91083 22.9521 9.09883C21.7151 15.4498 17.4831 17.6438 12.0781 17.6438H9.32614C8.66514 17.6438 8.10814 18.1238 8.00514 18.7758L6.59614 27.7118L6.19714 30.2448C6.13014 30.6728 6.46014 31.0588 6.89214 31.0588H11.7731C12.3511 31.0588 12.8421 30.6388 12.9331 30.0688L12.9811 29.8208L13.9001 23.9888L13.9591 23.6688C14.0491 23.0968 14.5411 22.6768 15.1191 22.6768H15.8491C20.5781 22.6768 24.2801 20.7568 25.3621 15.2008C25.8141 12.8798 25.5801 10.9418 24.3841 9.57883C24.0221 9.16783 23.5731 8.82683 23.0481 8.54883Z" fill="#179BD7"/>
<path d="M21.7539 8.03287C21.5649 7.97787 21.3699 7.92787 21.1699 7.88287C20.9689 7.83887 20.7629 7.79987 20.5509 7.76587C19.8089 7.64587 18.9959 7.58887 18.1249 7.58887H10.7729C10.5919 7.58887 10.4199 7.62987 10.2659 7.70387C9.92688 7.86687 9.67488 8.18787 9.61388 8.58087L8.04988 18.4869L8.00488 18.7759C8.10788 18.1239 8.66488 17.6439 9.32588 17.6439H12.0779C17.4829 17.6439 21.7149 15.4489 22.9519 9.09887C22.9889 8.91087 23.0199 8.72787 23.0479 8.54887C22.7349 8.38287 22.3959 8.24087 22.0309 8.11987C21.9409 8.08987 21.8479 8.06087 21.7539 8.03287Z" fill="#222D65"/>
<path d="M9.61399 8.58084C9.67499 8.18784 9.92699 7.86684 10.266 7.70484C10.421 7.63084 10.592 7.58984 10.773 7.58984H18.125C18.996 7.58984 19.809 7.64684 20.551 7.76684C20.763 7.80084 20.969 7.83984 21.17 7.88384C21.37 7.92884 21.565 7.97884 21.754 8.03384C21.848 8.06184 21.941 8.09084 22.032 8.11984C22.397 8.24084 22.736 8.38384 23.049 8.54884C23.417 6.20184 23.046 4.60384 21.777 3.15684C20.378 1.56384 17.853 0.881836 14.622 0.881836H5.24199C4.58199 0.881836 4.01899 1.36184 3.91699 2.01484L0.00998882 26.7798C-0.0670112 27.2698 0.310989 27.7118 0.804989 27.7118H6.59599L8.04999 18.4868L9.61399 8.58084Z" fill="#253B80"/>
</g>
<defs>
<clipPath id="clip0_2717_385">
<rect width="124" height="33" fill="white" transform="translate(0 0.881836)"/>
</clipPath>
</defs>
</svg>
